<svg width="684" height="72" viewBox="0 0 684 72" fill="none" xmlns="http://www.w3.org/2000/svg">
<path d="M27.78 41.16H32.48V43H25.5V29.1H27.78V41.16ZM33.6267 37.44C33.6267 36.3333 33.8534 35.3533 34.3067 34.5C34.7734 33.6467 35.4001 32.9867 36.1867 32.52C36.9867 32.04 37.8667 31.8 38.8267 31.8C39.6934 31.8 40.4467 31.9733 41.0867 32.32C41.7401 32.6533 42.2601 33.0733 42.6467 33.58V31.98H44.9467V43H42.6467V41.36C42.2601 41.88 41.7334 42.3133 41.0667 42.66C40.4001 43.0067 39.6401 43.18 38.7867 43.18C37.8401 43.18 36.9734 42.94 36.1867 42.46C35.4001 41.9667 34.7734 41.2867 34.3067 40.42C33.8534 39.54 33.6267 38.5467 33.6267 37.44ZM42.6467 37.48C42.6467 36.72 42.4867 36.06 42.1667 35.5C41.8601 34.94 41.4534 34.5133 40.9467 34.22C40.4401 33.9267 39.8934 33.78 39.3067 33.78C38.7201 33.78 38.1734 33.9267 37.6667 34.22C37.1601 34.5 36.7467 34.92 36.4267 35.48C36.1201 36.0267 35.9667 36.68 35.9667 37.44C35.9667 38.2 36.1201 38.8667 36.4267 39.44C36.7467 40.0133 37.1601 40.4533 37.6667 40.76C38.1867 41.0533 38.7334 41.2 39.3067 41.2C39.8934 41.2 40.4401 41.0533 40.9467 40.76C41.4534 40.4667 41.8601 40.04 42.1667 39.48C42.4867 38.9067 42.6467 38.24 42.6467 37.48ZM53.5014 31.8C54.3681 31.8 55.1414 31.98 55.8214 32.34C56.5147 32.7 57.0547 33.2333 57.4414 33.94C57.8281 34.6467 58.0214 35.5 58.0214 36.5V43H55.7614V36.84C55.7614 35.8533 55.5147 35.1 55.0214 34.58C54.5281 34.0467 53.8547 33.78 53.0014 33.78C52.1481 33.78 51.4681 34.0467 50.9614 34.58C50.4681 35.1 50.2214 35.8533 50.2214 36.84V43H47.9414V31.98H50.2214V33.24C50.5947 32.7867 51.0681 32.4333 51.6414 32.18C52.2281 31.9267 52.8481 31.8 53.5014 31.8ZM65.3697 31.8C66.223 31.8 66.9764 31.9733 67.6297 32.32C68.2964 32.6533 68.8164 33.0733 69.1897 33.58V31.98H71.4897V43.18C71.4897 44.1933 71.2764 45.0933 70.8497 45.88C70.423 46.68 69.803 47.3067 68.9897 47.76C68.1897 48.2133 67.2297 48.44 66.1097 48.44C64.6164 48.44 63.3764 48.0867 62.3897 47.38C61.403 46.6867 60.843 45.74 60.7097 44.54H62.9697C63.143 45.1133 63.5097 45.5733 64.0697 45.92C64.643 46.28 65.323 46.46 66.1097 46.46C67.0297 46.46 67.7697 46.18 68.3297 45.62C68.903 45.06 69.1897 44.2467 69.1897 43.18V41.34C68.803 41.86 68.2764 42.3 67.6097 42.66C66.9564 43.0067 66.2097 43.18 65.3697 43.18C64.4097 43.18 63.5297 42.94 62.7297 42.46C61.943 41.9667 61.3164 41.2867 60.8497 40.42C60.3964 39.54 60.1697 38.5467 60.1697 37.44C60.1697 36.3333 60.3964 35.3533 60.8497 34.5C61.3164 33.6467 61.943 32.9867 62.7297 32.52C63.5297 32.04 64.4097 31.8 65.3697 31.8ZM69.1897 37.48C69.1897 36.72 69.0297 36.06 68.7097 35.5C68.403 34.94 67.9964 34.5133 67.4897 34.22C66.983 33.9267 66.4364 33.78 65.8497 33.78C65.263 33.78 64.7164 33.9267 64.2097 34.22C63.703 34.5 63.2897 34.92 62.9697 35.48C62.663 36.0267 62.5097 36.68 62.5097 37.44C62.5097 38.2 62.663 38.8667 62.9697 39.44C63.2897 40.0133 63.703 40.4533 64.2097 40.76C64.7297 41.0533 65.2764 41.2 65.8497 41.2C66.4364 41.2 66.983 41.0533 67.4897 40.76C67.9964 40.4667 68.403 40.04 68.7097 39.48C69.0297 38.9067 69.1897 38.24 69.1897 37.48ZM84.4644 31.98V43H82.1844V41.7C81.8244 42.1533 81.351 42.5133 80.7644 42.78C80.191 43.0333 79.5777 43.16 78.9244 43.16C78.0577 43.16 77.2777 42.98 76.5844 42.62C75.9044 42.26 75.3644 41.7267 74.9644 41.02C74.5777 40.3133 74.3844 39.46 74.3844 38.46V31.98H76.6444V38.12C76.6444 39.1067 76.891 39.8667 77.3844 40.4C77.8777 40.92 78.551 41.18 79.4044 41.18C80.2577 41.18 80.931 40.92 81.4244 40.4C81.931 39.8667 82.1844 39.1067 82.1844 38.12V31.98H84.4644ZM86.7127 37.44C86.7127 36.3333 86.9393 35.3533 87.3927 34.5C87.8593 33.6467 88.486 32.9867 89.2727 32.52C90.0727 32.04 90.9527 31.8 91.9127 31.8C92.7793 31.8 93.5327 31.9733 94.1727 32.32C94.826 32.6533 95.346 33.0733 95.7327 33.58V31.98H98.0327V43H95.7327V41.36C95.346 41.88 94.8193 42.3133 94.1527 42.66C93.486 43.0067 92.726 43.18 91.8727 43.18C90.926 43.18 90.0593 42.94 89.2727 42.46C88.486 41.9667 87.8593 41.2867 87.3927 40.42C86.9393 39.54 86.7127 38.5467 86.7127 37.44ZM95.7327 37.48C95.7327 36.72 95.5727 36.06 95.2527 35.5C94.946 34.94 94.5393 34.5133 94.0327 34.22C93.526 33.9267 92.9793 33.78 92.3927 33.78C91.806 33.78 91.2593 33.9267 90.7527 34.22C90.246 34.5 89.8327 34.92 89.5127 35.48C89.206 36.0267 89.0527 36.68 89.0527 37.44C89.0527 38.2 89.206 38.8667 89.5127 39.44C89.8327 40.0133 90.246 40.4533 90.7527 40.76C91.2727 41.0533 91.8193 41.2 92.3927 41.2C92.9793 41.2 93.526 41.0533 94.0327 40.76C94.5393 40.4667 94.946 40.04 95.2527 39.48C95.5727 38.9067 95.7327 38.24 95.7327 37.48ZM105.467 31.8C106.321 31.8 107.074 31.9733 107.727 32.32C108.394 32.6533 108.914 33.0733 109.287 33.58V31.98H111.587V43.18C111.587 44.1933 111.374 45.0933 110.947 45.88C110.521 46.68 109.901 47.3067 109.087 47.76C108.287 48.2133 107.327 48.44 106.207 48.44C104.714 48.44 103.474 48.0867 102.487 47.38C101.501 46.6867 100.941 45.74 100.807 44.54H103.067C103.241 45.1133 103.607 45.5733 104.167 45.92C104.741 46.28 105.421 46.46 106.207 46.46C107.127 46.46 107.867 46.18 108.427 45.62C109.001 45.06 109.287 44.2467 109.287 43.18V41.34C108.901 41.86 108.374 42.3 107.707 42.66C107.054 43.0067 106.307 43.18 105.467 43.18C104.507 43.18 103.627 42.94 102.827 42.46C102.041 41.9667 101.414 41.2867 100.947 40.42C100.494 39.54 100.267 38.5467 100.267 37.44C100.267 36.3333 100.494 35.3533 100.947 34.5C101.414 33.6467 102.041 32.9867 102.827 32.52C103.627 32.04 104.507 31.8 105.467 31.8ZM109.287 37.48C109.287 36.72 109.127 36.06 108.807 35.5C108.501 34.94 108.094 34.5133 107.587 34.22C107.081 33.9267 106.534 33.78 105.947 33.78C105.361 33.78 104.814 33.9267 104.307 34.22C103.801 34.5 103.387 34.92 103.067 35.48C102.761 36.0267 102.607 36.68 102.607 37.44C102.607 38.2 102.761 38.8667 103.067 39.44C103.387 40.0133 103.801 40.4533 104.307 40.76C104.827 41.0533 105.374 41.2 105.947 41.2C106.534 41.2 107.081 41.0533 107.587 40.76C108.094 40.4667 108.501 40.04 108.807 39.48C109.127 38.9067 109.287 38.24 109.287 37.48ZM124.682 37.22C124.682 37.6333 124.655 38.0067 124.602 38.34H116.182C116.249 39.22 116.575 39.9267 117.162 40.46C117.749 40.9933 118.469 41.26 119.322 41.26C120.549 41.26 121.415 40.7467 121.922 39.72H124.382C124.049 40.7333 123.442 41.5667 122.562 42.22C121.695 42.86 120.615 43.18 119.322 43.18C118.269 43.18 117.322 42.9467 116.482 42.48C115.655 42 115.002 41.3333 114.522 40.48C114.055 39.6133 113.822 38.6133 113.822 37.48C113.822 36.3467 114.049 35.3533 114.502 34.5C114.969 33.6333 115.615 32.9667 116.442 32.5C117.282 32.0333 118.242 31.8 119.322 31.8C120.362 31.8 121.289 32.0267 122.102 32.48C122.915 32.9333 123.549 33.5733 124.002 34.4C124.455 35.2133 124.682 36.1533 124.682 37.22ZM122.302 36.5C122.289 35.66 121.989 34.9867 121.402 34.48C120.815 33.9733 120.089 33.72 119.222 33.72C118.435 33.72 117.762 33.9733 117.202 34.48C116.642 34.9733 116.309 35.6467 116.202 36.5H122.302ZM130.926 43.18C130.059 43.18 129.279 43.0267 128.586 42.72C127.906 42.4 127.366 41.9733 126.966 41.44C126.566 40.8933 126.352 40.2867 126.326 39.62H128.686C128.726 40.0867 128.946 40.48 129.346 40.8C129.759 41.1067 130.272 41.26 130.886 41.26C131.526 41.26 132.019 41.14 132.366 40.9C132.726 40.6467 132.906 40.3267 132.906 39.94C132.906 39.5267 132.706 39.22 132.306 39.02C131.919 38.82 131.299 38.6 130.446 38.36C129.619 38.1333 128.946 37.9133 128.426 37.7C127.906 37.4867 127.452 37.16 127.066 36.72C126.692 36.28 126.506 35.7 126.506 34.98C126.506 34.3933 126.679 33.86 127.026 33.38C127.372 32.8867 127.866 32.5 128.506 32.22C129.159 31.94 129.906 31.8 130.746 31.8C131.999 31.8 133.006 32.12 133.766 32.76C134.539 33.3867 134.952 34.2467 135.006 35.34H132.726C132.686 34.8467 132.486 34.4533 132.126 34.16C131.766 33.8667 131.279 33.72 130.666 33.72C130.066 33.72 129.606 33.8333 129.286 34.06C128.966 34.2867 128.806 34.5867 128.806 34.96C128.806 35.2533 128.912 35.5 129.126 35.7C129.339 35.9 129.599 36.06 129.906 36.18C130.212 36.2867 130.666 36.4267 131.266 36.6C132.066 36.8133 132.719 37.0333 133.226 37.26C133.746 37.4733 134.192 37.7933 134.566 38.22C134.939 38.6467 135.132 39.2133 135.146 39.92C135.146 40.5467 134.972 41.1067 134.626 41.6C134.279 42.0933 133.786 42.48 133.146 42.76C132.519 43.04 131.779 43.18 130.926 43.18Z" fill="#344563"/>
<path fill-rule="evenodd" clip-rule="evenodd" d="M631.293 32.2929C631.683 31.9024 632.317 31.9024 632.707 32.2929L638 37.5858L643.293 32.2929C643.683 31.9024 644.317 31.9024 644.707 32.2929C645.098 32.6834 645.098 33.3166 644.707 33.7071L638.707 39.7071C638.317 40.0976 637.683 40.0976 637.293 39.7071L631.293 33.7071C630.902 33.3166 630.902 32.6834 631.293 32.2929Z" fill="#5E6C84"/>
</svg>
