<svg width="684" height="72" viewBox="0 0 684 72" fill="none" xmlns="http://www.w3.org/2000/svg">
<path d="M33.72 28.88V30.72H27.66V35.1H32.66V36.86H27.66V43H25.38V28.88H33.72ZM38.0311 34.14C38.4044 33.42 38.9378 32.8533 39.6311 32.44C40.3244 32.0133 41.1244 31.8 42.0311 31.8V34.28H41.3511C40.3511 34.28 39.5444 34.5267 38.9311 35.02C38.3311 35.5 38.0311 36.3 38.0311 37.42V43H35.7511V31.98H38.0311V34.14ZM48.1594 31.84C49.1594 31.84 50.0127 32.0867 50.7194 32.58C51.426 33.0733 51.926 33.7267 52.2194 34.54V31.98H54.4994V43H52.2194V40.44C51.926 41.2533 51.426 41.9067 50.7194 42.4C50.0127 42.8933 49.1594 43.14 48.1594 43.14C47.1994 43.14 46.3394 42.9133 45.5794 42.46C44.8327 42.0067 44.246 41.3533 43.8194 40.5C43.3927 39.6467 43.1794 38.64 43.1794 37.48C43.1794 36.3333 43.3927 35.3333 43.8194 34.48C44.246 33.6267 44.8327 32.9733 45.5794 32.52C46.3394 32.0667 47.1994 31.84 48.1594 31.84ZM48.8594 33.84C47.846 33.84 47.0327 34.1667 46.4194 34.82C45.8194 35.46 45.5194 36.3467 45.5194 37.48C45.5194 38.6133 45.8194 39.5067 46.4194 40.16C47.0327 40.8 47.846 41.12 48.8594 41.12C49.4994 41.12 50.0727 40.9733 50.5794 40.68C51.086 40.3733 51.486 39.9467 51.7794 39.4C52.0727 38.8533 52.2194 38.2133 52.2194 37.48C52.2194 36.76 52.0727 36.1267 51.7794 35.58C51.486 35.02 51.086 34.5933 50.5794 34.3C50.0727 33.9933 49.4994 33.84 48.8594 33.84ZM71.0155 31.8C72.3221 31.8 73.3621 32.2133 74.1355 33.04C74.9221 33.8667 75.3155 35.0467 75.3155 36.58V43H73.0355V36.82C73.0355 35.86 72.7955 35.12 72.3155 34.6C71.8355 34.0667 71.1755 33.8 70.3355 33.8C69.4421 33.8 68.7288 34.0867 68.1955 34.66C67.6755 35.22 67.4155 36.0467 67.4155 37.14V43H65.1355V36.82C65.1355 35.86 64.8955 35.12 64.4155 34.6C63.9355 34.0667 63.2755 33.8 62.4355 33.8C61.5421 33.8 60.8288 34.0867 60.2955 34.66C59.7755 35.22 59.5155 36.0467 59.5155 37.14V43H57.2355V31.98H59.5155V34.28C59.7955 33.48 60.2621 32.8667 60.9155 32.44C61.5688 32.0133 62.3355 31.8 63.2155 31.8C64.1355 31.8 64.9288 32.0267 65.5955 32.48C66.2755 32.9333 66.7688 33.5867 67.0755 34.44C67.3955 33.6133 67.9088 32.9667 68.6155 32.5C69.3221 32.0333 70.1221 31.8 71.0155 31.8ZM88.2177 36.96C88.2177 37.3333 88.191 37.66 88.1377 37.94H79.6577C79.6977 39.0733 80.011 39.9133 80.5977 40.46C81.1843 41.0067 81.911 41.28 82.7777 41.28C83.5377 41.28 84.1777 41.0867 84.6977 40.7C85.231 40.3133 85.5577 39.8 85.6777 39.16H88.1177C87.971 39.9333 87.6643 40.62 87.1977 41.22C86.731 41.82 86.1243 42.2933 85.3777 42.64C84.631 42.9733 83.7977 43.14 82.8777 43.14C81.811 43.14 80.8643 42.9133 80.0377 42.46C79.2243 42.0067 78.5843 41.3533 78.1177 40.5C77.651 39.6467 77.4177 38.64 77.4177 37.48C77.4177 36.3333 77.651 35.3333 78.1177 34.48C78.5843 33.6267 79.2243 32.9733 80.0377 32.52C80.8643 32.0667 81.811 31.84 82.8777 31.84C83.9577 31.84 84.8977 32.0667 85.6977 32.52C86.511 32.96 87.131 33.5733 87.5577 34.36C87.9977 35.1333 88.2177 36 88.2177 36.96ZM85.9177 36.9C85.9443 36.18 85.8177 35.58 85.5377 35.1C85.271 34.6067 84.8977 34.2467 84.4177 34.02C83.951 33.78 83.4377 33.66 82.8777 33.66C81.9843 33.66 81.2377 33.9333 80.6377 34.48C80.0377 35.0267 79.711 35.8333 79.6577 36.9H85.9177ZM105.859 31.98L102.799 43H100.279L97.5591 34.48L94.7991 43H92.2991L89.2391 31.98H91.5391L93.6391 40.9L96.3991 31.98H98.7991L101.599 40.9L103.699 31.98H105.859ZM112.451 31.84C113.518 31.84 114.478 32.0667 115.331 32.52C116.185 32.9733 116.851 33.6267 117.331 34.48C117.811 35.3333 118.051 36.3333 118.051 37.48C118.051 38.64 117.811 39.6467 117.331 40.5C116.851 41.3533 116.185 42.0067 115.331 42.46C114.478 42.9133 113.518 43.14 112.451 43.14C111.385 43.14 110.425 42.9133 109.571 42.46C108.731 42.0067 108.065 41.3533 107.571 40.5C107.091 39.6333 106.851 38.6267 106.851 37.48C106.851 36.3333 107.091 35.3333 107.571 34.48C108.065 33.6267 108.731 32.9733 109.571 32.52C110.425 32.0667 111.385 31.84 112.451 31.84ZM112.451 33.82C111.865 33.82 111.325 33.9533 110.831 34.22C110.338 34.4867 109.938 34.9 109.631 35.46C109.338 36.0067 109.191 36.68 109.191 37.48C109.191 38.2933 109.338 38.9733 109.631 39.52C109.938 40.0667 110.338 40.4733 110.831 40.74C111.325 41.0067 111.865 41.14 112.451 41.14C113.038 41.14 113.578 41.0067 114.071 40.74C114.565 40.4733 114.958 40.0667 115.251 39.52C115.558 38.9733 115.711 38.2933 115.711 37.48C115.711 36.68 115.558 36.0067 115.251 35.46C114.958 34.9 114.565 34.4867 114.071 34.22C113.578 33.9533 113.038 33.82 112.451 33.82ZM122.523 34.14C122.897 33.42 123.43 32.8533 124.123 32.44C124.817 32.0133 125.617 31.8 126.523 31.8V34.28H125.843C124.843 34.28 124.037 34.5267 123.423 35.02C122.823 35.5 122.523 36.3 122.523 37.42V43H120.243V31.98H122.523V34.14ZM134.472 43L130.512 38.1V43H128.232V28.2H130.512V36.68L134.432 31.98H137.172L132.372 37.46L137.292 43H134.472ZM142.398 31.84C143.692 31.84 144.725 32.1733 145.498 32.84C146.285 33.4933 146.765 34.3733 146.938 35.48H144.778C144.685 34.88 144.425 34.4 143.998 34.04C143.585 33.6667 143.032 33.48 142.338 33.48C141.765 33.48 141.318 33.62 140.998 33.9C140.692 34.1667 140.538 34.5333 140.538 35C140.538 35.3467 140.652 35.6267 140.878 35.84C141.105 36.0533 141.385 36.22 141.718 36.34C142.065 36.46 142.552 36.5933 143.178 36.74C144.005 36.9267 144.672 37.12 145.178 37.32C145.698 37.52 146.138 37.84 146.498 38.28C146.872 38.7067 147.058 39.2933 147.058 40.04C147.058 40.96 146.705 41.7067 145.998 42.28C145.305 42.8533 144.365 43.14 143.178 43.14C141.805 43.14 140.692 42.82 139.838 42.18C138.998 41.54 138.492 40.6467 138.318 39.5H140.538C140.605 40.1 140.872 40.5867 141.338 40.96C141.805 41.3333 142.418 41.52 143.178 41.52C143.725 41.52 144.152 41.38 144.458 41.1C144.778 40.8067 144.938 40.44 144.938 40C144.938 39.6133 144.818 39.3067 144.578 39.08C144.338 38.8533 144.038 38.68 143.678 38.56C143.318 38.4267 142.825 38.2933 142.198 38.16C141.398 37.9733 140.745 37.7867 140.238 37.6C139.745 37.4133 139.318 37.1133 138.958 36.7C138.612 36.2733 138.438 35.7 138.438 34.98C138.438 34.0467 138.785 33.2933 139.478 32.72C140.185 32.1333 141.158 31.84 142.398 31.84Z" fill="#344563"/>
<path fill-rule="evenodd" clip-rule="evenodd" d="M635.293 29.2929C635.683 28.9024 636.317 28.9024 636.707 29.2929L642.707 35.2929C643.098 35.6834 643.098 36.3166 642.707 36.7071L636.707 42.7071C636.317 43.0976 635.683 43.0976 635.293 42.7071C634.902 42.3166 634.902 41.6834 635.293 41.2929L640.586 36L635.293 30.7071C634.902 30.3166 634.902 29.6834 635.293 29.2929Z" fill="#505F79"/>
<rect y="71" width="684" height="1" fill="#DFE1E6"/>
</svg>
