<svg width="684" height="72" viewBox="0 0 684 72" fill="none" xmlns="http://www.w3.org/2000/svg">
<path d="M34.66 39.24C34.66 39.9333 34.4933 40.58 34.16 41.18C33.8267 41.7667 33.32 42.24 32.64 42.6C31.96 42.96 31.1267 43.14 30.14 43.14C29.18 43.14 28.32 42.9733 27.56 42.64C26.8 42.2933 26.1933 41.8133 25.74 41.2C25.2867 40.5867 25.0267 39.88 24.96 39.08H27.4C27.4667 39.6933 27.7267 40.22 28.18 40.66C28.6467 41.1 29.2667 41.32 30.04 41.32C30.7333 41.32 31.2667 41.1333 31.64 40.76C32.0267 40.3867 32.22 39.9067 32.22 39.32C32.22 38.8133 32.08 38.4 31.8 38.08C31.52 37.7467 31.1733 37.4867 30.76 37.3C30.3467 37.1133 29.78 36.9 29.06 36.66C28.18 36.38 27.46 36.1 26.9 35.82C26.3533 35.54 25.8867 35.1333 25.5 34.6C25.1133 34.0667 24.92 33.3667 24.92 32.5C24.92 31.74 25.1067 31.0733 25.48 30.5C25.8533 29.9267 26.3867 29.4867 27.08 29.18C27.7733 28.86 28.5733 28.7 29.48 28.7C30.92 28.7 32.06 29.0467 32.9 29.74C33.7533 30.4333 34.24 31.34 34.36 32.46H31.9C31.8067 31.9267 31.5533 31.4733 31.14 31.1C30.74 30.7133 30.1867 30.52 29.48 30.52C28.84 30.52 28.3267 30.6867 27.94 31.02C27.5533 31.34 27.36 31.8067 27.36 32.42C27.36 32.9 27.4933 33.3 27.76 33.62C28.0267 33.9267 28.36 34.1733 28.76 34.36C29.1733 34.5333 29.7333 34.74 30.44 34.98C31.3333 35.26 32.06 35.5467 32.62 35.84C33.1933 36.12 33.6733 36.5333 34.06 37.08C34.46 37.6267 34.66 38.3467 34.66 39.24ZM43.1825 43L39.2225 38.1V43H36.9425V28.2H39.2225V36.68L43.1425 31.98H45.8825L41.0825 37.46L46.0025 43H43.1825ZM47.1694 28.78C47.1694 28.3933 47.3027 28.0733 47.5694 27.82C47.836 27.5667 48.1894 27.44 48.6294 27.44C49.0694 27.44 49.4227 27.5667 49.6894 27.82C49.9694 28.0733 50.1094 28.3933 50.1094 28.78C50.1094 29.1667 49.9694 29.48 49.6894 29.72C49.4227 29.96 49.0694 30.08 48.6294 30.08C48.1894 30.08 47.836 29.96 47.5694 29.72C47.3027 29.48 47.1694 29.1667 47.1694 28.78ZM49.7694 31.98V43H47.4894V31.98H49.7694ZM54.8084 28.2V43H52.5284V28.2H54.8084ZM59.8475 28.2V43H57.5675V28.2H59.8475ZM66.2266 31.84C67.5199 31.84 68.5532 32.1733 69.3266 32.84C70.1132 33.4933 70.5932 34.3733 70.7666 35.48H68.6066C68.5132 34.88 68.2532 34.4 67.8266 34.04C67.4132 33.6667 66.8599 33.48 66.1666 33.48C65.5932 33.48 65.1466 33.62 64.8266 33.9C64.5199 34.1667 64.3666 34.5333 64.3666 35C64.3666 35.3467 64.4799 35.6267 64.7066 35.84C64.9332 36.0533 65.2132 36.22 65.5466 36.34C65.8932 36.46 66.3799 36.5933 67.0066 36.74C67.8332 36.9267 68.4999 37.12 69.0066 37.32C69.5266 37.52 69.9666 37.84 70.3266 38.28C70.6999 38.7067 70.8866 39.2933 70.8866 40.04C70.8866 40.96 70.5332 41.7067 69.8266 42.28C69.1332 42.8533 68.1932 43.14 67.0066 43.14C65.6332 43.14 64.5199 42.82 63.6666 42.18C62.8266 41.54 62.3199 40.6467 62.1466 39.5H64.3666C64.4332 40.1 64.6999 40.5867 65.1666 40.96C65.6332 41.3333 66.2466 41.52 67.0066 41.52C67.5532 41.52 67.9799 41.38 68.2866 41.1C68.6066 40.8067 68.7666 40.44 68.7666 40C68.7666 39.6133 68.6466 39.3067 68.4066 39.08C68.1666 38.8533 67.8666 38.68 67.5066 38.56C67.1466 38.4267 66.6532 38.2933 66.0266 38.16C65.2266 37.9733 64.5732 37.7867 64.0666 37.6C63.5732 37.4133 63.1466 37.1133 62.7866 36.7C62.4399 36.2733 62.2666 35.7 62.2666 34.98C62.2666 34.0467 62.6132 33.2933 63.3066 32.72C64.0132 32.1333 64.9866 31.84 66.2266 31.84Z" fill="#344563"/>
<path fill-rule="evenodd" clip-rule="evenodd" d="M635.293 29.2929C635.683 28.9024 636.317 28.9024 636.707 29.2929L642.707 35.2929C643.098 35.6834 643.098 36.3166 642.707 36.7071L636.707 42.7071C636.317 43.0976 635.683 43.0976 635.293 42.7071C634.902 42.3166 634.902 41.6834 635.293 41.2929L640.586 36L635.293 30.7071C634.902 30.3166 634.902 29.6834 635.293 29.2929Z" fill="#505F79"/>
<rect y="71" width="684" height="1" fill="#DFE1E6"/>
</svg>
